<?xml version="1.0" encoding="UTF-8"?>
<svg width="700pt" height="700pt" version="1.1" viewBox="0 0 700 700" xmlns="http://www.w3.org/2000/svg" xmlns:xlink="http://www.w3.org/1999/xlink">
 <defs>
  <symbol id="x" overflow="visible">
   <path d="m11.031-0.65625c-0.5625 0.29297-1.1562 0.51172-1.7812 0.65625-0.61719 0.15625-1.2578 0.23438-1.9219 0.23438-2 0-3.5898-0.55469-4.7656-1.6719-1.168-1.125-1.75-2.6406-1.75-4.5469 0-1.9258 0.58203-3.4453 1.75-4.5625 1.1758-1.1133 2.7656-1.6719 4.7656-1.6719 0.66406 0 1.3047 0.078125 1.9219 0.23438 0.625 0.14844 1.2188 0.36719 1.7812 0.65625v2.4844c-0.57422-0.39453-1.1406-0.67969-1.7031-0.85938-0.55469-0.1875-1.1367-0.28125-1.75-0.28125-1.1055 0-1.9766 0.35547-2.6094 1.0625-0.63672 0.71094-0.95312 1.6875-0.95312 2.9375 0 1.2305 0.31641 2.1992 0.95312 2.9062 0.63281 0.71094 1.5039 1.0625 2.6094 1.0625 0.61328 0 1.1953-0.085937 1.75-0.26562 0.5625-0.1875 1.1289-0.47266 1.7031-0.85938z"/>
  </symbol>
  <symbol id="c" overflow="visible">
   <path d="m8.0781-6.5469c-0.25-0.125-0.5-0.21094-0.75-0.26562-0.25-0.0625-0.50781-0.09375-0.76562-0.09375-0.74219 0-1.3086 0.24219-1.7031 0.71875-0.39844 0.48047-0.59375 1.1562-0.59375 2.0312v4.1562h-2.875v-9h2.875v1.4688c0.36328-0.58203 0.78516-1.0078 1.2656-1.2812 0.47656-0.26953 1.0547-0.40625 1.7344-0.40625 0.09375 0 0.19531 0.007812 0.3125 0.015625 0.11328 0 0.27344 0.015625 0.48438 0.046875z"/>
  </symbol>
  <symbol id="a" overflow="visible">
   <path d="m10.375-4.5312v0.82812h-6.7344c0.070313 0.67969 0.31641 1.1836 0.73438 1.5156 0.41406 0.33594 1 0.5 1.75 0.5 0.60156 0 1.2227-0.085938 1.8594-0.26562 0.63281-0.17578 1.2891-0.44531 1.9688-0.8125v2.2188c-0.6875 0.26172-1.3711 0.45312-2.0469 0.57812-0.67969 0.13281-1.3594 0.20312-2.0469 0.20312-1.625 0-2.8906-0.41016-3.7969-1.2344-0.90625-0.83203-1.3594-2-1.3594-3.5 0-1.4688 0.44141-2.6172 1.3281-3.4531 0.89453-0.84375 2.1172-1.2656 3.6719-1.2656 1.4141 0 2.5469 0.42969 3.3906 1.2812 0.85156 0.84375 1.2812 1.9805 1.2812 3.4062zm-2.9531-0.95312c0-0.53906-0.16406-0.97656-0.48438-1.3125-0.32422-0.34375-0.74219-0.51562-1.25-0.51562-0.5625 0-1.0234 0.15625-1.375 0.46875-0.34375 0.3125-0.55859 0.76562-0.64062 1.3594z"/>
  </symbol>
  <symbol id="k" overflow="visible">
   <path d="m5.4219-4.0469c-0.60547 0-1.0586 0.10547-1.3594 0.3125-0.30469 0.19922-0.45312 0.49609-0.45312 0.89062 0 0.36719 0.11719 0.65234 0.35938 0.85938 0.25 0.19922 0.59375 0.29688 1.0312 0.29688 0.53906 0 0.99219-0.19141 1.3594-0.57812 0.375-0.38281 0.5625-0.86719 0.5625-1.4531v-0.32812zm4.3906-1.0938v5.1406h-2.8906v-1.3281c-0.38672 0.54297-0.82422 0.9375-1.3125 1.1875-0.48047 0.25-1.0625 0.375-1.75 0.375-0.9375 0-1.6992-0.26953-2.2812-0.8125-0.58594-0.55078-0.875-1.2578-0.875-2.125 0-1.0508 0.36328-1.8203 1.0938-2.3125 0.72656-0.5 1.8672-0.75 3.4219-0.75h1.7031v-0.21875c0-0.45703-0.18359-0.78906-0.54688-1-0.35547-0.21875-0.91406-0.32812-1.6719-0.32812-0.625 0-1.2031 0.0625-1.7344 0.1875s-1.0234 0.3125-1.4688 0.5625v-2.2031c0.61328-0.14453 1.2266-0.25391 1.8438-0.32812 0.625-0.082031 1.25-0.125 1.875-0.125 1.625 0 2.7969 0.32422 3.5156 0.96875 0.71875 0.63672 1.0781 1.6719 1.0781 3.1094z"/>
  </symbol>
  <symbol id="b" overflow="visible">
   <path d="m4.5312-11.562v2.5625h2.9688v2.0469h-2.9688v3.8281c0 0.41797 0.082031 0.69922 0.25 0.84375 0.16406 0.14844 0.49219 0.21875 0.98438 0.21875h1.4844v2.0625h-2.4688c-1.1367 0-1.9453-0.23438-2.4219-0.70312-0.46875-0.47656-0.70312-1.2852-0.70312-2.4219v-3.8281h-1.4375v-2.0469h1.4375v-2.5625z"/>
  </symbol>
  <symbol id="e" overflow="visible">
   <path d="m7.5156-7.6875v-4.8281h2.8906v12.516h-2.8906v-1.2969c-0.39844 0.53125-0.83594 0.92188-1.3125 1.1719-0.48047 0.23828-1.0312 0.35938-1.6562 0.35938-1.1172 0-2.0312-0.4375-2.75-1.3125-0.71094-0.88281-1.0625-2.0234-1.0625-3.4219 0-1.3828 0.35156-2.5156 1.0625-3.3906 0.71875-0.88281 1.6328-1.3281 2.75-1.3281 0.61328 0 1.1602 0.125 1.6406 0.375 0.48828 0.25 0.92969 0.63672 1.3281 1.1562zm-1.9062 5.8281c0.61328 0 1.082-0.22266 1.4062-0.67188 0.33203-0.44531 0.5-1.1016 0.5-1.9688 0-0.85156-0.16797-1.5039-0.5-1.9531-0.32422-0.44531-0.79297-0.67188-1.4062-0.67188-0.60547 0-1.0742 0.22656-1.4062 0.67188-0.32422 0.44922-0.48438 1.1016-0.48438 1.9531 0 0.86719 0.16016 1.5234 0.48438 1.9688 0.33203 0.44922 0.80078 0.67188 1.4062 0.67188z"/>
  </symbol>
  <symbol id="j" overflow="visible">
   <path d="m6.1719-1.8594c0.61328 0 1.082-0.22266 1.4062-0.67188 0.33203-0.44531 0.5-1.1016 0.5-1.9688 0-0.85156-0.16797-1.5039-0.5-1.9531-0.32422-0.44531-0.79297-0.67188-1.4062-0.67188-0.61719 0-1.0898 0.22656-1.4219 0.67188-0.32422 0.44922-0.48438 1.1016-0.48438 1.9531 0 0.85547 0.16016 1.5117 0.48438 1.9688 0.33203 0.44922 0.80469 0.67188 1.4219 0.67188zm-1.9062-5.8281c0.39453-0.51953 0.83203-0.90625 1.3125-1.1562 0.47656-0.25 1.0352-0.375 1.6719-0.375 1.1016 0 2.0078 0.44531 2.7188 1.3281 0.71875 0.875 1.0781 2.0078 1.0781 3.3906 0 1.3984-0.35938 2.5391-1.0781 3.4219-0.71094 0.875-1.6172 1.3125-2.7188 1.3125-0.63672 0-1.1953-0.125-1.6719-0.375-0.48047-0.25-0.91797-0.63281-1.3125-1.1562v1.2969h-2.875v-12.516h2.875z"/>
  </symbol>
  <symbol id="i" overflow="visible">
   <path d="m0.20312-9h2.875l2.4219 6.1094 2.0625-6.1094h2.875l-3.7812 9.8594c-0.38672 1-0.83594 1.6953-1.3438 2.0938-0.5 0.39453-1.168 0.59375-2 0.59375h-1.6562v-1.875h0.89062c0.48828 0 0.84375-0.078125 1.0625-0.23438 0.22656-0.15625 0.40625-0.4375 0.53125-0.84375l0.078125-0.25z"/>
  </symbol>
  <symbol id="h" overflow="visible">
   <path d="m1.5156-12h3.9375l2.7344 6.4219 2.75-6.4219h3.9375v12h-2.9375v-8.7812l-2.7656 6.4688h-1.9531l-2.7656-6.4688v8.7812h-2.9375z"/>
  </symbol>
  <symbol id="g" overflow="visible">
   <path d="m1.3906-9h2.875v9h-2.875zm0-3.5156h2.875v2.3438h-2.875z"/>
  </symbol>
  <symbol id="w" overflow="visible">
   <path d="m1.3906-12.516h2.875v6.8125l3.3125-3.2969h3.3438l-4.4062 4.125 4.75 4.875h-3.4844l-3.5156-3.75v3.75h-2.875z"/>
  </symbol>
  <symbol id="v" overflow="visible">
   <path d="m0.92188-12h10.094v1.875l-6.4375 7.7812h6.625v2.3438h-10.469v-1.875l6.4531-7.7969h-6.2656z"/>
  </symbol>
  <symbol id="f" overflow="visible">
   <path d="m1.2812-3.5v-5.5h2.9062v0.89062c0 0.49219-0.007812 1.1055-0.015625 1.8438v1.4688c0 0.73047 0.015625 1.2578 0.046875 1.5781 0.039062 0.3125 0.10938 0.54297 0.20312 0.6875 0.11328 0.1875 0.26562 0.33594 0.45312 0.4375 0.1875 0.09375 0.40625 0.14062 0.65625 0.14062 0.60156 0 1.0781-0.22656 1.4219-0.6875 0.34375-0.45703 0.51562-1.0977 0.51562-1.9219v-4.4375h2.875v9h-2.875v-1.2969c-0.4375 0.52344-0.90234 0.90625-1.3906 1.1562-0.48047 0.25-1.0117 0.375-1.5938 0.375-1.043 0-1.8398-0.31641-2.3906-0.95312-0.54297-0.64453-0.8125-1.5703-0.8125-2.7812z"/>
  </symbol>
  <symbol id="u" overflow="visible">
   <path d="m7.5156-1.5312c-0.39844 0.53125-0.83594 0.92188-1.3125 1.1719-0.48047 0.24219-1.0312 0.35938-1.6562 0.35938-1.1055 0-2.0156-0.42969-2.7344-1.2969-0.71875-0.86328-1.0781-1.9688-1.0781-3.3125s0.35938-2.4414 1.0781-3.2969c0.71875-0.86328 1.6289-1.2969 2.7344-1.2969 0.625 0 1.1758 0.125 1.6562 0.375 0.47656 0.24219 0.91406 0.625 1.3125 1.1562v-1.3281h2.8906v8.0938c0 1.4453-0.46094 2.5508-1.375 3.3125-0.91797 0.75781-2.2422 1.1406-3.9688 1.1406-0.5625 0-1.1094-0.042969-1.6406-0.125-0.52344-0.085937-1.0469-0.21484-1.5781-0.39062v-2.25c0.5 0.28906 0.98828 0.50781 1.4688 0.65625 0.48828 0.14453 0.97656 0.21875 1.4688 0.21875 0.9375 0 1.625-0.21094 2.0625-0.625 0.44531-0.41797 0.67188-1.0625 0.67188-1.9375zm-1.9062-5.5938c-0.59375 0-1.0586 0.21875-1.3906 0.65625-0.33594 0.4375-0.5 1.0586-0.5 1.8594 0 0.82422 0.16016 1.4492 0.48438 1.875 0.32031 0.42969 0.78906 0.64062 1.4062 0.64062 0.60156 0 1.0703-0.21875 1.4062-0.65625 0.33203-0.4375 0.5-1.0547 0.5-1.8594 0-0.80078-0.16797-1.4219-0.5-1.8594-0.33594-0.4375-0.80469-0.65625-1.4062-0.65625z"/>
  </symbol>
  <symbol id="t" overflow="visible">
   <path d="m8.4219-8.7188v2.1875c-0.61719-0.25781-1.2109-0.45312-1.7812-0.57812-0.57422-0.13281-1.1172-0.20312-1.625-0.20312-0.55469 0-0.96484 0.070312-1.2344 0.20312-0.26172 0.13672-0.39062 0.35156-0.39062 0.64062 0 0.23047 0.097656 0.40625 0.29688 0.53125 0.20703 0.125 0.57031 0.21484 1.0938 0.26562l0.5 0.078125c1.4766 0.1875 2.4688 0.49609 2.9688 0.92188 0.50781 0.42969 0.76562 1.1016 0.76562 2.0156 0 0.96094-0.35547 1.6836-1.0625 2.1719-0.69922 0.48047-1.75 0.71875-3.1562 0.71875-0.59375 0-1.2109-0.046875-1.8438-0.14062-0.63672-0.09375-1.293-0.23438-1.9688-0.42188v-2.1875c0.57031 0.28125 1.1602 0.49219 1.7656 0.625 0.60156 0.13672 1.2188 0.20312 1.8438 0.20312 0.5625 0 0.98438-0.070312 1.2656-0.21875 0.28125-0.15625 0.42188-0.39062 0.42188-0.70312 0-0.25-0.10156-0.4375-0.29688-0.5625-0.1875-0.13281-0.57422-0.23438-1.1562-0.29688l-0.51562-0.0625c-1.2812-0.16406-2.1797-0.46094-2.6875-0.89062-0.51172-0.4375-0.76562-1.0977-0.76562-1.9844 0-0.95703 0.32031-1.6641 0.96875-2.125 0.65625-0.45703 1.6602-0.6875 3.0156-0.6875 0.53125 0 1.0859 0.042969 1.6719 0.125 0.58203 0.074219 1.2188 0.19922 1.9062 0.375z"/>
  </symbol>
  <symbol id="s" overflow="visible">
   <path d="m7.3125-12.516v1.8906h-1.5938c-0.40625 0-0.69531 0.074219-0.85938 0.21875-0.15625 0.14844-0.23438 0.40234-0.23438 0.76562v0.64062h2.4531v2.0469h-2.4531v6.9531h-2.875v-6.9531h-1.4375v-2.0469h1.4375v-0.64062c0-0.97656 0.26953-1.7031 0.8125-2.1719 0.55078-0.46875 1.3984-0.70312 2.5469-0.70312z"/>
  </symbol>
  <symbol id="d" overflow="visible">
   <path d="m5.6719-7.1719c-0.63672 0-1.125 0.23047-1.4688 0.6875-0.33594 0.46094-0.5 1.1211-0.5 1.9844 0 0.86719 0.16406 1.5273 0.5 1.9844 0.34375 0.46094 0.83203 0.6875 1.4688 0.6875 0.625 0 1.1016-0.22656 1.4375-0.6875 0.33203-0.45703 0.5-1.1172 0.5-1.9844 0-0.86328-0.16797-1.5234-0.5-1.9844-0.33594-0.45703-0.8125-0.6875-1.4375-0.6875zm0-2.0469c1.5508 0 2.7578 0.41797 3.625 1.25 0.875 0.83594 1.3125 1.9922 1.3125 3.4688 0 1.4805-0.4375 2.6406-1.3125 3.4844-0.86719 0.83594-2.0742 1.25-3.625 1.25-1.5547 0-2.7734-0.41406-3.6562-1.25-0.875-0.84375-1.3125-2.0039-1.3125-3.4844 0-1.4766 0.4375-2.6328 1.3125-3.4688 0.88281-0.83203 2.1016-1.25 3.6562-1.25z"/>
  </symbol>
  <symbol id="r" overflow="visible">
   <path d="m9.7344-7.5156c0.36328-0.55078 0.79688-0.97266 1.2969-1.2656 0.5-0.28906 1.0508-0.4375 1.6562-0.4375 1.0312 0 1.8164 0.32031 2.3594 0.95312 0.53906 0.63672 0.8125 1.5625 0.8125 2.7812v5.4844h-2.8906v-4.7031-0.20312c0.007812-0.082031 0.015625-0.19141 0.015625-0.32812 0-0.63281-0.09375-1.0938-0.28125-1.375-0.1875-0.28906-0.49609-0.4375-0.92188-0.4375-0.54297 0-0.96484 0.22656-1.2656 0.67188-0.29297 0.44922-0.44531 1.1016-0.45312 1.9531v4.4219h-2.8906v-4.7031c0-0.98828-0.089844-1.625-0.26562-1.9062-0.16797-0.28906-0.47656-0.4375-0.92188-0.4375-0.55469 0-0.98047 0.23047-1.2812 0.6875-0.29297 0.44922-0.4375 1.0898-0.4375 1.9219v4.4375h-2.9062v-9h2.9062v1.3125c0.35156-0.50781 0.75781-0.89062 1.2188-1.1406 0.45703-0.25781 0.96094-0.39062 1.5156-0.39062 0.61328 0 1.1602 0.15234 1.6406 0.45312 0.47656 0.29297 0.84375 0.71094 1.0938 1.25z"/>
  </symbol>
  <symbol id="q" overflow="visible">
   <path d="m10.438-5.4844v5.4844h-2.8906v-4.1875c0-0.78125-0.023437-1.3164-0.0625-1.6094-0.03125-0.30078-0.089844-0.51953-0.17188-0.65625-0.11719-0.1875-0.27344-0.33203-0.46875-0.4375-0.1875-0.10156-0.40625-0.15625-0.65625-0.15625-0.59375 0-1.0625 0.23438-1.4062 0.70312-0.34375 0.46094-0.51562 1.0938-0.51562 1.9062v4.4375h-2.875v-12.516h2.875v4.8281c0.42578-0.51953 0.88281-0.90625 1.375-1.1562 0.48828-0.25 1.0312-0.375 1.625-0.375 1.0391 0 1.8281 0.32031 2.3594 0.95312 0.53906 0.63672 0.8125 1.5625 0.8125 2.7812z"/>
  </symbol>
  <symbol id="p" overflow="visible">
   <path d="m1.5156-12h3.4531l4.375 8.2344v-8.2344h2.9219v12h-3.4531l-4.3594-8.2344v8.2344h-2.9375z"/>
  </symbol>
  <symbol id="o" overflow="visible">
   <path d="m10.438-5.4844v5.4844h-2.8906v-4.2031c0-0.76953-0.023437-1.3008-0.0625-1.5938-0.03125-0.30078-0.089844-0.51953-0.17188-0.65625-0.11719-0.1875-0.27344-0.33203-0.46875-0.4375-0.1875-0.10156-0.40625-0.15625-0.65625-0.15625-0.59375 0-1.0625 0.23438-1.4062 0.70312-0.34375 0.46094-0.51562 1.0938-0.51562 1.9062v4.4375h-2.875v-9h2.875v1.3125c0.42578-0.51953 0.88281-0.90625 1.375-1.1562 0.48828-0.25 1.0312-0.375 1.625-0.375 1.0391 0 1.8281 0.32031 2.3594 0.95312 0.53906 0.63672 0.8125 1.5625 0.8125 2.7812z"/>
  </symbol>
  <symbol id="n" overflow="visible">
   <path d="m1.5156-12h5.1406c1.5195 0 2.6875 0.33984 3.5 1.0156 0.82031 0.67969 1.2344 1.6406 1.2344 2.8906 0 1.2617-0.41406 2.2305-1.2344 2.9062-0.8125 0.67969-1.9805 1.0156-3.5 1.0156h-2.0469v4.1719h-3.0938zm3.0938 2.2344v3.3594h1.7188c0.59375 0 1.0508-0.14453 1.375-0.4375 0.33203-0.28906 0.5-0.70703 0.5-1.25 0-0.53125-0.16797-0.94141-0.5-1.2344-0.32422-0.28906-0.78125-0.4375-1.375-0.4375z"/>
  </symbol>
  <symbol id="m" overflow="visible">
   <path d="m1.3906-9h2.875v8.8438c0 1.207-0.29297 2.125-0.875 2.75-0.57422 0.63281-1.4141 0.95312-2.5156 0.95312h-1.4219v-1.875h0.5c0.53906 0 0.91406-0.125 1.125-0.375 0.20703-0.25 0.3125-0.73438 0.3125-1.4531zm0-3.5156h2.875v2.3438h-2.875z"/>
  </symbol>
  <symbol id="l" overflow="visible">
   <path d="m8.6562-8.7188v2.3438c-0.38672-0.26953-0.77734-0.46875-1.1719-0.59375-0.39844-0.13281-0.80859-0.20312-1.2344-0.20312-0.80469 0-1.4297 0.24219-1.875 0.71875-0.44922 0.46875-0.67188 1.1211-0.67188 1.9531 0 0.84375 0.22266 1.5 0.67188 1.9688 0.44531 0.46875 1.0703 0.70312 1.875 0.70312 0.45703 0 0.88281-0.066406 1.2812-0.20312 0.40625-0.13281 0.78125-0.33203 1.125-0.59375v2.3594c-0.44922 0.16797-0.90625 0.28906-1.375 0.375-0.46094 0.082031-0.92188 0.125-1.3906 0.125-1.625 0-2.8984-0.41406-3.8125-1.25-0.91797-0.83203-1.375-1.9922-1.375-3.4844 0-1.4766 0.45703-2.6328 1.375-3.4688 0.91406-0.83203 2.1875-1.25 3.8125-1.25 0.47656 0 0.94531 0.042969 1.4062 0.125 0.45703 0.085938 0.91016 0.21094 1.3594 0.375z"/>
  </symbol>
 </defs>
 <g>
  <path d="m350 16.469c-145.34 0-263.53 118.23-263.53 263.53s118.19 263.53 263.53 263.53c145.3 0 263.53-118.23 263.53-263.53s-118.23-263.53-263.53-263.53zm128.14 280h-111.67v111.7c0 9.0898-7.3789 16.469-16.469 16.469-9.125 0-16.469-7.3789-16.469-16.469v-111.7h-111.71c-9.0898 0-16.469-7.3789-16.469-16.469s7.3789-16.469 16.469-16.469h111.71v-111.71c0-9.0898 7.3477-16.469 16.469-16.469 9.0898 0 16.469 7.3789 16.469 16.469v111.71h111.67c9.0898 0 16.469 7.3789 16.469 16.469 0.003906 9.0898-7.375 16.469-16.469 16.469z"/>
  <use x="70" y="609.410156" xlink:href="#x"/>
  <use x="82.085938" y="609.410156" xlink:href="#c"/>
  <use x="90.210938" y="609.410156" xlink:href="#a"/>
  <use x="101.382812" y="609.410156" xlink:href="#k"/>
  <use x="112.496094" y="609.410156" xlink:href="#b"/>
  <use x="120.367188" y="609.410156" xlink:href="#a"/>
  <use x="131.539062" y="609.410156" xlink:href="#e"/>
  <use x="149.0625" y="609.410156" xlink:href="#j"/>
  <use x="160.855469" y="609.410156" xlink:href="#i"/>
  <use x="177.324219" y="609.410156" xlink:href="#h"/>
  <use x="193.714844" y="609.410156" xlink:href="#g"/>
  <use x="199.359375" y="609.410156" xlink:href="#w"/>
  <use x="210.3125" y="609.410156" xlink:href="#a"/>
  <use x="227.21875" y="609.410156" xlink:href="#v"/>
  <use x="239.160156" y="609.410156" xlink:href="#f"/>
  <use x="250.886719" y="609.410156" xlink:href="#g"/>
  <use x="256.53125" y="609.410156" xlink:href="#e"/>
  <use x="268.324219" y="609.410156" xlink:href="#u"/>
  <use x="280.113281" y="609.410156" xlink:href="#a"/>
  <use x="291.285156" y="609.410156" xlink:href="#a"/>
  <use x="302.453125" y="609.410156" xlink:href="#t"/>
  <use x="312.257812" y="609.410156" xlink:href="#b"/>
  <use x="70" y="625.882812" xlink:href="#s"/>
  <use x="77.164063" y="625.882812" xlink:href="#c"/>
  <use x="85.289063" y="625.882812" xlink:href="#d"/>
  <use x="96.605469" y="625.882812" xlink:href="#r"/>
  <use x="119.5" y="625.882812" xlink:href="#b"/>
  <use x="127.375" y="625.882812" xlink:href="#q"/>
  <use x="139.097656" y="625.882812" xlink:href="#a"/>
  <use x="156.003906" y="625.882812" xlink:href="#p"/>
  <use x="169.789062" y="625.882812" xlink:href="#d"/>
  <use x="181.105469" y="625.882812" xlink:href="#f"/>
  <use x="192.828125" y="625.882812" xlink:href="#o"/>
  <use x="210.289063" y="625.882812" xlink:href="#n"/>
  <use x="222.359375" y="625.882812" xlink:href="#c"/>
  <use x="230.484375" y="625.882812" xlink:href="#d"/>
  <use x="241.800781" y="625.882812" xlink:href="#m"/>
  <use x="247.445313" y="625.882812" xlink:href="#a"/>
  <use x="258.617188" y="625.882812" xlink:href="#l"/>
  <use x="268.378906" y="625.882812" xlink:href="#b"/>
 </g>
</svg>
